<?xml version="1.0" encoding="UTF-8" standalone="no"?>
<!DOCTYPE svg PUBLIC "-//W3C//DTD SVG 1.1//EN"
 "http://www.w3.org/Graphics/SVG/1.1/DTD/svg11.dtd">
<!-- Generated by graphviz version 9.0.0 (20230911.1827)
 -->
<!-- Title: G Pages: 1 -->
<svg width="1876pt" height="220pt"
 viewBox="0.00 0.00 1875.64 219.50" xmlns="http://www.w3.org/2000/svg" xmlns:xlink="http://www.w3.org/1999/xlink">
<g id="graph0" class="graph" transform="scale(1 1) rotate(0) translate(4 215.5)">
<title>G</title>
<polygon fill="white" stroke="none" points="-4,4 -4,-215.5 1871.64,-215.5 1871.64,4 -4,4"/>
<!-- 0 -->
<g id="node1" class="node">
<title>0</title>
<polygon fill="#d6ffcc" stroke="#d6ffcc" points="373.64,-123.75 254.14,-123.75 254.14,-87.75 373.64,-87.75 373.64,-123.75"/>
<text text-anchor="middle" x="313.89" y="-100.33" font-family="Times New Roman,serif" font-size="14.00">&lt;A: void &lt;init&gt;()&gt;</text>
</g>
<!-- 4 -->
<g id="node5" class="node">
<title>4</title>
<polygon fill="#d6ffcc" stroke="#d6ffcc" points="413.39,-36 214.39,-36 214.39,0 413.39,0 413.39,-36"/>
<text text-anchor="middle" x="313.89" y="-12.57" font-family="Times New Roman,serif" font-size="14.00">&lt;java.lang.Object: void &lt;init&gt;()&gt;</text>
</g>
<!-- 0&#45;&gt;4 -->
<g id="edge1" class="edge">
<title>0&#45;&gt;4</title>
<path fill="none" stroke="black" d="M313.89,-87.4C313.89,-76.01 313.89,-60.84 313.89,-47.68"/>
<polygon fill="black" stroke="black" points="317.39,-47.84 313.89,-37.84 310.39,-47.84 317.39,-47.84"/>
<text text-anchor="middle" x="495.77" y="-56.45" font-family="Times New Roman,serif" font-size="14.00">[0@L19] invokespecial %this.&lt;java.lang.Object: void &lt;init&gt;()&gt;();</text>
</g>
<!-- 1 -->
<g id="node2" class="node">
<title>1</title>
<polygon fill="#d6ffcc" stroke="#d6ffcc" points="752.02,-211.5 523.77,-211.5 523.77,-175.5 752.02,-175.5 752.02,-211.5"/>
<text text-anchor="middle" x="637.89" y="-188.07" font-family="Times New Roman,serif" font-size="14.00">&lt;Array: void main(java.lang.String[])&gt;</text>
</g>
<!-- 1&#45;&gt;0 -->
<g id="edge3" class="edge">
<title>1&#45;&gt;0</title>
<path fill="none" stroke="black" d="M523.54,-190.2C345.93,-186.06 22.17,-176.02 4.64,-157.5 -29.34,-121.59 140.8,-111.09 242.35,-108.02"/>
<polygon fill="black" stroke="black" points="242.37,-111.52 252.26,-107.74 242.17,-104.52 242.37,-111.52"/>
<text text-anchor="middle" x="148.52" y="-144.2" font-family="Times New Roman,serif" font-size="14.00">[3@L5] invokespecial temp$2.&lt;A: void &lt;init&gt;()&gt;();</text>
</g>
<!-- 1&#45;&gt;0 -->
<g id="edge4" class="edge">
<title>1&#45;&gt;0</title>
<path fill="none" stroke="black" d="M523.32,-187.37C436.36,-182.27 329.36,-172.95 315.14,-157.5 309.69,-151.57 307.97,-143.41 308.01,-135.37"/>
<polygon fill="black" stroke="black" points="311.5,-135.73 308.96,-125.44 304.53,-135.06 311.5,-135.73"/>
<text text-anchor="middle" x="466.27" y="-144.2" font-family="Times New Roman,serif" font-size="14.00">[15@L10] invokespecial temp$9.&lt;A: void &lt;init&gt;()&gt;();</text>
</g>
<!-- 1&#45;&gt;0 -->
<g id="edge6" class="edge">
<title>1&#45;&gt;0</title>
<path fill="none" stroke="black" d="M634.96,-175.13C632.09,-163.78 626.53,-149.65 615.89,-141.75 580.5,-115.48 462.72,-108.59 385.14,-106.97"/>
<polygon fill="black" stroke="black" points="385.57,-103.48 375.51,-106.8 385.44,-110.48 385.57,-103.48"/>
<text text-anchor="middle" x="772.52" y="-144.2" font-family="Times New Roman,serif" font-size="14.00">[7@L6] invokespecial temp$5.&lt;A: void &lt;init&gt;()&gt;();</text>
</g>
<!-- 2 -->
<g id="node3" class="node">
<title>2</title>
<polygon fill="#d6ffcc" stroke="#d6ffcc" points="1126.52,-123.75 769.27,-123.75 769.27,-87.75 1126.52,-87.75 1126.52,-123.75"/>
<text text-anchor="middle" x="947.89" y="-100.33" font-family="Times New Roman,serif" font-size="14.00">&lt;Array: void arrayStore(java.lang.Object[],java.lang.Object)&gt;</text>
</g>
<!-- 1&#45;&gt;2 -->
<g id="edge2" class="edge">
<title>1&#45;&gt;2</title>
<path fill="none" stroke="black" d="M752.21,-190.05C820.34,-186.43 898.7,-177.8 925.89,-157.5 933.28,-151.99 938.21,-143.48 941.5,-134.99"/>
<polygon fill="black" stroke="black" points="944.81,-136.14 944.49,-125.55 938.14,-134.03 944.81,-136.14"/>
<text text-anchor="middle" x="1216.77" y="-144.2" font-family="Times New Roman,serif" font-size="14.00">[16@L10] invokestatic &lt;Array: void arrayStore(java.lang.Object[],java.lang.Object)&gt;(barr, temp$9);</text>
</g>
<!-- 3 -->
<g id="node4" class="node">
<title>3</title>
<polygon fill="#d6ffcc" stroke="#d6ffcc" points="1632.39,-123.75 1421.39,-123.75 1421.39,-87.75 1632.39,-87.75 1632.39,-123.75"/>
<text text-anchor="middle" x="1526.89" y="-100.33" font-family="Times New Roman,serif" font-size="14.00">&lt;java.lang.Object: int hashCode()&gt;</text>
</g>
<!-- 1&#45;&gt;3 -->
<g id="edge5" class="edge">
<title>1&#45;&gt;3</title>
<path fill="none" stroke="black" d="M752.47,-190.81C979.58,-187.05 1467.71,-176.77 1498.89,-157.5 1507.41,-152.23 1513.54,-143.39 1517.85,-134.55"/>
<polygon fill="black" stroke="black" points="1521.04,-135.98 1521.65,-125.4 1514.58,-133.29 1521.04,-135.98"/>
<text text-anchor="middle" x="1690.27" y="-144.2" font-family="Times New Roman,serif" font-size="14.00">[12@L8] invokevirtual arr.&lt;java.lang.Object: int hashCode()&gt;();</text>
</g>
</g>
</svg>
