<?xml version="1.0" encoding="UTF-8" standalone="no"?>
<!DOCTYPE svg PUBLIC "-//W3C//DTD SVG 1.1//EN"
 "http://www.w3.org/Graphics/SVG/1.1/DTD/svg11.dtd">
<!-- Generated by graphviz version 9.0.0 (20230911.1827)
 -->
<!-- Title: G Pages: 1 -->
<svg width="1192pt" height="307pt"
 viewBox="0.00 0.00 1192.00 307.25" xmlns="http://www.w3.org/2000/svg" xmlns:xlink="http://www.w3.org/1999/xlink">
<g id="graph0" class="graph" transform="scale(1 1) rotate(0) translate(4 303.25)">
<title>G</title>
<polygon fill="white" stroke="none" points="-4,4 -4,-303.25 1188,-303.25 1188,4 -4,4"/>
<!-- 0 -->
<g id="node1" class="node">
<title>0</title>
<polygon fill="#d6ffcc" stroke="#d6ffcc" points="106,-211.5 0,-211.5 0,-175.5 106,-175.5 106,-211.5"/>
<text text-anchor="middle" x="53" y="-188.07" font-family="Times New Roman,serif" font-size="14.00">&lt;A: void foo()&gt;</text>
</g>
<!-- 1 -->
<g id="node2" class="node">
<title>1</title>
<polygon fill="#d6ffcc" stroke="#d6ffcc" points="567.62,-299.25 312.38,-299.25 312.38,-263.25 567.62,-263.25 567.62,-299.25"/>
<text text-anchor="middle" x="440" y="-275.82" font-family="Times New Roman,serif" font-size="14.00">&lt;VirtualCall: void main(java.lang.String[])&gt;</text>
</g>
<!-- 1&#45;&gt;0 -->
<g id="edge2" class="edge">
<title>1&#45;&gt;0</title>
<path fill="none" stroke="black" d="M312.08,-275.7C210.62,-270.88 82.83,-261.64 64.25,-245.25 57.9,-239.65 54.69,-231.34 53.18,-223.06"/>
<polygon fill="black" stroke="black" points="56.67,-222.75 52.17,-213.16 49.7,-223.47 56.67,-222.75"/>
<text text-anchor="middle" x="182.38" y="-231.95" font-family="Times New Roman,serif" font-size="14.00">[3@L5] invokevirtual b.&lt;B: void foo()&gt;();</text>
</g>
<!-- 3 -->
<g id="node4" class="node">
<title>3</title>
<polygon fill="#d6ffcc" stroke="#d6ffcc" points="364,-211.5 258,-211.5 258,-175.5 364,-175.5 364,-211.5"/>
<text text-anchor="middle" x="311" y="-188.07" font-family="Times New Roman,serif" font-size="14.00">&lt;D: void foo()&gt;</text>
</g>
<!-- 1&#45;&gt;3 -->
<g id="edge4" class="edge">
<title>1&#45;&gt;3</title>
<path fill="none" stroke="black" d="M342.68,-262.76C326.67,-257.97 313.55,-252.14 308.25,-245.25 303.41,-238.95 302.31,-230.81 302.92,-222.89"/>
<polygon fill="black" stroke="black" points="306.35,-223.64 304.56,-213.2 299.45,-222.48 306.35,-223.64"/>
<text text-anchor="middle" x="426.38" y="-231.95" font-family="Times New Roman,serif" font-size="14.00">[3@L5] invokevirtual b.&lt;B: void foo()&gt;();</text>
</g>
<!-- 5 -->
<g id="node6" class="node">
<title>5</title>
<polygon fill="#d6ffcc" stroke="#d6ffcc" points="622,-211.5 516,-211.5 516,-175.5 622,-175.5 622,-211.5"/>
<text text-anchor="middle" x="569" y="-188.07" font-family="Times New Roman,serif" font-size="14.00">&lt;C: void foo()&gt;</text>
</g>
<!-- 1&#45;&gt;5 -->
<g id="edge3" class="edge">
<title>1&#45;&gt;5</title>
<path fill="none" stroke="black" d="M519.61,-262.79C529.58,-258.23 539.05,-252.49 547,-245.25 553.64,-239.2 558.36,-230.8 561.68,-222.58"/>
<polygon fill="black" stroke="black" points="564.99,-223.73 564.9,-213.13 558.36,-221.47 564.99,-223.73"/>
<text text-anchor="middle" x="676.38" y="-231.95" font-family="Times New Roman,serif" font-size="14.00">[3@L5] invokevirtual b.&lt;B: void foo()&gt;();</text>
</g>
<!-- 6 -->
<g id="node7" class="node">
<title>6</title>
<polygon fill="#d6ffcc" stroke="#d6ffcc" points="886.38,-211.5 767.62,-211.5 767.62,-175.5 886.38,-175.5 886.38,-211.5"/>
<text text-anchor="middle" x="827" y="-188.07" font-family="Times New Roman,serif" font-size="14.00">&lt;B: void &lt;init&gt;()&gt;</text>
</g>
<!-- 1&#45;&gt;6 -->
<g id="edge1" class="edge">
<title>1&#45;&gt;6</title>
<path fill="none" stroke="black" d="M568.07,-279.93C655.08,-277.45 760.85,-269.3 798,-245.25 806.48,-239.76 812.75,-230.87 817.24,-222.05"/>
<polygon fill="black" stroke="black" points="820.43,-223.51 821.27,-212.95 814.02,-220.68 820.43,-223.51"/>
<text text-anchor="middle" x="956.25" y="-231.95" font-family="Times New Roman,serif" font-size="14.00">[1@L4] invokespecial temp$0.&lt;B: void &lt;init&gt;()&gt;();</text>
</g>
<!-- 2 -->
<g id="node3" class="node">
<title>2</title>
<polygon fill="#d6ffcc" stroke="#d6ffcc" points="886.75,-123.75 767.25,-123.75 767.25,-87.75 886.75,-87.75 886.75,-123.75"/>
<text text-anchor="middle" x="827" y="-100.33" font-family="Times New Roman,serif" font-size="14.00">&lt;A: void &lt;init&gt;()&gt;</text>
</g>
<!-- 4 -->
<g id="node5" class="node">
<title>4</title>
<polygon fill="#d6ffcc" stroke="#d6ffcc" points="926.5,-36 727.5,-36 727.5,0 926.5,0 926.5,-36"/>
<text text-anchor="middle" x="827" y="-12.57" font-family="Times New Roman,serif" font-size="14.00">&lt;java.lang.Object: void &lt;init&gt;()&gt;</text>
</g>
<!-- 2&#45;&gt;4 -->
<g id="edge5" class="edge">
<title>2&#45;&gt;4</title>
<path fill="none" stroke="black" d="M827,-87.4C827,-76.01 827,-60.84 827,-47.68"/>
<polygon fill="black" stroke="black" points="830.5,-47.84 827,-37.84 823.5,-47.84 830.5,-47.84"/>
<text text-anchor="middle" x="1005.5" y="-56.45" font-family="Times New Roman,serif" font-size="14.00">[0@L9] invokespecial %this.&lt;java.lang.Object: void &lt;init&gt;()&gt;();</text>
</g>
<!-- 6&#45;&gt;2 -->
<g id="edge6" class="edge">
<title>6&#45;&gt;2</title>
<path fill="none" stroke="black" d="M827,-175.15C827,-163.76 827,-148.59 827,-135.43"/>
<polygon fill="black" stroke="black" points="830.5,-135.59 827,-125.59 823.5,-135.59 830.5,-135.59"/>
<text text-anchor="middle" x="969.12" y="-144.2" font-family="Times New Roman,serif" font-size="14.00">[0@L14] invokespecial %this.&lt;A: void &lt;init&gt;()&gt;();</text>
</g>
</g>
</svg>
