<?xml version="1.0" encoding="UTF-8" standalone="no"?>
<!DOCTYPE svg PUBLIC "-//W3C//DTD SVG 1.1//EN"
 "http://www.w3.org/Graphics/SVG/1.1/DTD/svg11.dtd">
<!-- Generated by graphviz version 9.0.0 (20230911.1827)
 -->
<!-- Title: G Pages: 1 -->
<svg width="478pt" height="2258pt"
 viewBox="0.00 0.00 477.75 2258.00" xmlns="http://www.w3.org/2000/svg" xmlns:xlink="http://www.w3.org/1999/xlink">
<g id="graph0" class="graph" transform="scale(1 1) rotate(0) translate(4 2254)">
<title>G</title>
<polygon fill="white" stroke="none" points="-4,4 -4,-2254 473.75,-2254 473.75,4 -4,4"/>
<!-- 0 -->
<g id="node1" class="node">
<title>0</title>
<polygon fill="#d6ffcc" stroke="#d6ffcc" points="376.62,-2250 68.88,-2250 68.88,-2214 376.62,-2214 376.62,-2250"/>
<text text-anchor="middle" x="222.75" y="-2226.57" font-family="Times New Roman,serif" font-size="14.00">Entry&lt;BranchLoop: void branchLoop(int,boolean)&gt;</text>
</g>
<!-- 1 -->
<g id="node2" class="node">
<title>1</title>
<polygon fill="#d6ffcc" stroke="#d6ffcc" points="252.12,-2162.25 193.38,-2162.25 193.38,-2126.25 252.12,-2126.25 252.12,-2162.25"/>
<text text-anchor="middle" x="222.75" y="-2138.82" font-family="Times New Roman,serif" font-size="14.00">0: x = 1</text>
</g>
<!-- 0&#45;&gt;1 -->
<g id="edge1" class="edge">
<title>0&#45;&gt;1</title>
<path fill="none" stroke="black" d="M222.75,-2213.65C222.75,-2202.26 222.75,-2187.09 222.75,-2173.93"/>
<polygon fill="black" stroke="black" points="226.25,-2174.09 222.75,-2164.09 219.25,-2174.09 226.25,-2174.09"/>
<text text-anchor="middle" x="246" y="-2182.7" font-family="Times New Roman,serif" font-size="14.00">ENTRY</text>
</g>
<!-- 2 -->
<g id="node3" class="node">
<title>2</title>
<polygon fill="#d6ffcc" stroke="#d6ffcc" points="252.12,-2074.5 193.38,-2074.5 193.38,-2038.5 252.12,-2038.5 252.12,-2074.5"/>
<text text-anchor="middle" x="222.75" y="-2051.07" font-family="Times New Roman,serif" font-size="14.00">1: y = 2</text>
</g>
<!-- 1&#45;&gt;2 -->
<g id="edge2" class="edge">
<title>1&#45;&gt;2</title>
<path fill="none" stroke="black" d="M222.75,-2125.9C222.75,-2114.51 222.75,-2099.34 222.75,-2086.18"/>
<polygon fill="black" stroke="black" points="226.25,-2086.34 222.75,-2076.34 219.25,-2086.34 226.25,-2086.34"/>
<text text-anchor="middle" x="278.25" y="-2094.95" font-family="Times New Roman,serif" font-size="14.00">FALL_THROUGH</text>
</g>
<!-- 3 -->
<g id="node4" class="node">
<title>3</title>
<polygon fill="#d6ffcc" stroke="#d6ffcc" points="280.25,-1986.75 165.25,-1986.75 165.25,-1950.75 280.25,-1950.75 280.25,-1986.75"/>
<text text-anchor="middle" x="222.75" y="-1963.33" font-family="Times New Roman,serif" font-size="14.00">2: %intconst0 = 0</text>
</g>
<!-- 2&#45;&gt;3 -->
<g id="edge3" class="edge">
<title>2&#45;&gt;3</title>
<path fill="none" stroke="black" d="M222.75,-2038.15C222.75,-2026.76 222.75,-2011.59 222.75,-1998.43"/>
<polygon fill="black" stroke="black" points="226.25,-1998.59 222.75,-1988.59 219.25,-1998.59 226.25,-1998.59"/>
<text text-anchor="middle" x="278.25" y="-2007.2" font-family="Times New Roman,serif" font-size="14.00">FALL_THROUGH</text>
</g>
<!-- 4 -->
<g id="node5" class="node">
<title>4</title>
<polygon fill="#d6ffcc" stroke="#d6ffcc" points="310.25,-1899 135.25,-1899 135.25,-1863 310.25,-1863 310.25,-1899"/>
<text text-anchor="middle" x="222.75" y="-1875.58" font-family="Times New Roman,serif" font-size="14.00">3: if (c &gt; %intconst0) goto 5</text>
</g>
<!-- 3&#45;&gt;4 -->
<g id="edge4" class="edge">
<title>3&#45;&gt;4</title>
<path fill="none" stroke="black" d="M222.75,-1950.4C222.75,-1939.01 222.75,-1923.84 222.75,-1910.68"/>
<polygon fill="black" stroke="black" points="226.25,-1910.84 222.75,-1900.84 219.25,-1910.84 226.25,-1910.84"/>
<text text-anchor="middle" x="278.25" y="-1919.45" font-family="Times New Roman,serif" font-size="14.00">FALL_THROUGH</text>
</g>
<!-- 5 -->
<g id="node6" class="node">
<title>5</title>
<polygon fill="#d6ffcc" stroke="#d6ffcc" points="200.88,-1757.25 128.62,-1757.25 128.62,-1721.25 200.88,-1721.25 200.88,-1757.25"/>
<text text-anchor="middle" x="164.75" y="-1733.83" font-family="Times New Roman,serif" font-size="14.00">4: goto 22</text>
</g>
<!-- 4&#45;&gt;5 -->
<g id="edge6" class="edge">
<title>4&#45;&gt;5</title>
<path fill="none" stroke="black" d="M195.1,-1862.62C189.16,-1857.63 183.54,-1851.7 179.75,-1845 166.54,-1821.66 163.52,-1790.88 163.36,-1768.73"/>
<polygon fill="black" stroke="black" points="166.86,-1768.98 163.5,-1758.93 159.86,-1768.88 166.86,-1768.98"/>
<text text-anchor="middle" x="211.25" y="-1831.7" font-family="Times New Roman,serif" font-size="14.00">IF_FALSE</text>
</g>
<!-- 6 -->
<g id="node7" class="node">
<title>6</title>
<polygon fill="#d6ffcc" stroke="#d6ffcc" points="304.75,-1811.25 250.75,-1811.25 250.75,-1775.25 304.75,-1775.25 304.75,-1811.25"/>
<text text-anchor="middle" x="277.75" y="-1787.83" font-family="Times New Roman,serif" font-size="14.00">5: nop</text>
</g>
<!-- 4&#45;&gt;6 -->
<g id="edge5" class="edge">
<title>4&#45;&gt;6</title>
<path fill="none" stroke="black" d="M234.9,-1862.67C238.75,-1857.08 242.99,-1850.81 246.75,-1845 251.74,-1837.29 257.01,-1828.8 261.76,-1821.02"/>
<polygon fill="black" stroke="black" points="264.67,-1822.97 266.85,-1812.6 258.68,-1819.34 264.67,-1822.97"/>
<text text-anchor="middle" x="285.25" y="-1831.7" font-family="Times New Roman,serif" font-size="14.00">IF_TRUE</text>
</g>
<!-- 23 -->
<g id="node24" class="node">
<title>23</title>
<polygon fill="#d6ffcc" stroke="#d6ffcc" points="178.75,-299.25 120.75,-299.25 120.75,-263.25 178.75,-263.25 178.75,-299.25"/>
<text text-anchor="middle" x="149.75" y="-275.82" font-family="Times New Roman,serif" font-size="14.00">22: nop</text>
</g>
<!-- 5&#45;&gt;23 -->
<g id="edge7" class="edge">
<title>5&#45;&gt;23</title>
<path fill="none" stroke="black" d="M155.45,-1720.77C146.32,-1701.96 133.75,-1670.89 133.75,-1642.38 133.75,-1642.38 133.75,-1642.38 133.75,-368 133.75,-348.62 137.75,-327.2 141.74,-310.61"/>
<polygon fill="black" stroke="black" points="145.13,-311.5 144.22,-300.95 138.35,-309.77 145.13,-311.5"/>
<text text-anchor="middle" x="154" y="-1021.7" font-family="Times New Roman,serif" font-size="14.00">GOTO</text>
</g>
<!-- 7 -->
<g id="node8" class="node">
<title>7</title>
<polygon fill="#d6ffcc" stroke="#d6ffcc" points="308.75,-1703.25 254.75,-1703.25 254.75,-1667.25 308.75,-1667.25 308.75,-1703.25"/>
<text text-anchor="middle" x="281.75" y="-1679.83" font-family="Times New Roman,serif" font-size="14.00">6: nop</text>
</g>
<!-- 6&#45;&gt;7 -->
<g id="edge8" class="edge">
<title>6&#45;&gt;7</title>
<path fill="none" stroke="black" d="M278.39,-1775.22C279,-1759.01 279.94,-1734.31 280.66,-1715.04"/>
<polygon fill="black" stroke="black" points="284.16,-1715.23 281.04,-1705.1 277.16,-1714.96 284.16,-1715.23"/>
<text text-anchor="middle" x="335.25" y="-1733.83" font-family="Times New Roman,serif" font-size="14.00">FALL_THROUGH</text>
</g>
<!-- 8 -->
<g id="node9" class="node">
<title>8</title>
<polygon fill="#d6ffcc" stroke="#d6ffcc" points="339.25,-1615.5 224.25,-1615.5 224.25,-1579.5 339.25,-1579.5 339.25,-1615.5"/>
<text text-anchor="middle" x="281.75" y="-1592.08" font-family="Times New Roman,serif" font-size="14.00">7: %intconst1 = 1</text>
</g>
<!-- 7&#45;&gt;8 -->
<g id="edge9" class="edge">
<title>7&#45;&gt;8</title>
<path fill="none" stroke="black" d="M281.75,-1666.9C281.75,-1655.51 281.75,-1640.34 281.75,-1627.18"/>
<polygon fill="black" stroke="black" points="285.25,-1627.34 281.75,-1617.34 278.25,-1627.34 285.25,-1627.34"/>
<text text-anchor="middle" x="337.25" y="-1635.95" font-family="Times New Roman,serif" font-size="14.00">FALL_THROUGH</text>
</g>
<!-- 9 -->
<g id="node10" class="node">
<title>9</title>
<polygon fill="#d6ffcc" stroke="#d6ffcc" points="350.5,-1527.75 213,-1527.75 213,-1491.75 350.5,-1491.75 350.5,-1527.75"/>
<text text-anchor="middle" x="281.75" y="-1504.33" font-family="Times New Roman,serif" font-size="14.00">8: x = y + %intconst1</text>
</g>
<!-- 8&#45;&gt;9 -->
<g id="edge10" class="edge">
<title>8&#45;&gt;9</title>
<path fill="none" stroke="black" d="M281.75,-1579.15C281.75,-1567.76 281.75,-1552.59 281.75,-1539.43"/>
<polygon fill="black" stroke="black" points="285.25,-1539.59 281.75,-1529.59 278.25,-1539.59 285.25,-1539.59"/>
<text text-anchor="middle" x="337.25" y="-1548.2" font-family="Times New Roman,serif" font-size="14.00">FALL_THROUGH</text>
</g>
<!-- 10 -->
<g id="node11" class="node">
<title>10</title>
<polygon fill="#d6ffcc" stroke="#d6ffcc" points="339.25,-1440 224.25,-1440 224.25,-1404 339.25,-1404 339.25,-1440"/>
<text text-anchor="middle" x="281.75" y="-1416.58" font-family="Times New Roman,serif" font-size="14.00">9: %intconst2 = 2</text>
</g>
<!-- 9&#45;&gt;10 -->
<g id="edge11" class="edge">
<title>9&#45;&gt;10</title>
<path fill="none" stroke="black" d="M281.75,-1491.4C281.75,-1480.01 281.75,-1464.84 281.75,-1451.68"/>
<polygon fill="black" stroke="black" points="285.25,-1451.84 281.75,-1441.84 278.25,-1451.84 285.25,-1451.84"/>
<text text-anchor="middle" x="337.25" y="-1460.45" font-family="Times New Roman,serif" font-size="14.00">FALL_THROUGH</text>
</g>
<!-- 11 -->
<g id="node12" class="node">
<title>11</title>
<polygon fill="#d6ffcc" stroke="#d6ffcc" points="352.75,-1352.25 210.75,-1352.25 210.75,-1316.25 352.75,-1316.25 352.75,-1352.25"/>
<text text-anchor="middle" x="281.75" y="-1328.83" font-family="Times New Roman,serif" font-size="14.00">10: y = %intconst2 * z</text>
</g>
<!-- 10&#45;&gt;11 -->
<g id="edge12" class="edge">
<title>10&#45;&gt;11</title>
<path fill="none" stroke="black" d="M281.75,-1403.65C281.75,-1392.26 281.75,-1377.09 281.75,-1363.93"/>
<polygon fill="black" stroke="black" points="285.25,-1364.09 281.75,-1354.09 278.25,-1364.09 285.25,-1364.09"/>
<text text-anchor="middle" x="337.25" y="-1372.7" font-family="Times New Roman,serif" font-size="14.00">FALL_THROUGH</text>
</g>
<!-- 12 -->
<g id="node13" class="node">
<title>12</title>
<polygon fill="#d6ffcc" stroke="#d6ffcc" points="380.5,-1264.5 183,-1264.5 183,-1228.5 380.5,-1228.5 380.5,-1264.5"/>
<text text-anchor="middle" x="281.75" y="-1241.08" font-family="Times New Roman,serif" font-size="14.00">11: if (d == %intconst0) goto 15</text>
</g>
<!-- 11&#45;&gt;12 -->
<g id="edge13" class="edge">
<title>11&#45;&gt;12</title>
<path fill="none" stroke="black" d="M281.75,-1315.9C281.75,-1304.51 281.75,-1289.34 281.75,-1276.18"/>
<polygon fill="black" stroke="black" points="285.25,-1276.34 281.75,-1266.34 278.25,-1276.34 285.25,-1276.34"/>
<text text-anchor="middle" x="337.25" y="-1284.95" font-family="Times New Roman,serif" font-size="14.00">FALL_THROUGH</text>
</g>
<!-- 13 -->
<g id="node14" class="node">
<title>13</title>
<polygon fill="#d6ffcc" stroke="#d6ffcc" points="263.25,-1176.75 184.25,-1176.75 184.25,-1140.75 263.25,-1140.75 263.25,-1176.75"/>
<text text-anchor="middle" x="223.75" y="-1153.33" font-family="Times New Roman,serif" font-size="14.00">12: goto 13</text>
</g>
<!-- 12&#45;&gt;13 -->
<g id="edge15" class="edge">
<title>12&#45;&gt;13</title>
<path fill="none" stroke="black" d="M264.81,-1228.01C259.98,-1222.61 254.92,-1216.5 250.75,-1210.5 245.66,-1203.17 240.84,-1194.78 236.71,-1186.95"/>
<polygon fill="black" stroke="black" points="239.88,-1185.47 232.24,-1178.14 233.64,-1188.64 239.88,-1185.47"/>
<text text-anchor="middle" x="282.25" y="-1197.2" font-family="Times New Roman,serif" font-size="14.00">IF_FALSE</text>
</g>
<!-- 16 -->
<g id="node17" class="node">
<title>16</title>
<polygon fill="#d6ffcc" stroke="#d6ffcc" points="298.75,-913.5 240.75,-913.5 240.75,-877.5 298.75,-877.5 298.75,-913.5"/>
<text text-anchor="middle" x="269.75" y="-890.08" font-family="Times New Roman,serif" font-size="14.00">15: nop</text>
</g>
<!-- 12&#45;&gt;16 -->
<g id="edge14" class="edge">
<title>12&#45;&gt;16</title>
<path fill="none" stroke="black" d="M300.48,-1228.26C305.37,-1222.96 310.25,-1216.84 313.75,-1210.5 325.07,-1190.02 327.75,-1183.15 327.75,-1159.75 327.75,-1159.75 327.75,-1159.75 327.75,-982.25 327.75,-958.85 326.65,-951.02 313.75,-931.5 311.41,-927.95 308.58,-924.6 305.52,-921.48"/>
<polygon fill="black" stroke="black" points="307.87,-918.89 298.11,-914.79 303.19,-924.09 307.87,-918.89"/>
<text text-anchor="middle" x="356.25" y="-1065.58" font-family="Times New Roman,serif" font-size="14.00">IF_TRUE</text>
</g>
<!-- 14 -->
<g id="node15" class="node">
<title>14</title>
<polygon fill="#d6ffcc" stroke="#d6ffcc" points="236.75,-1089 178.75,-1089 178.75,-1053 236.75,-1053 236.75,-1089"/>
<text text-anchor="middle" x="207.75" y="-1065.58" font-family="Times New Roman,serif" font-size="14.00">13: nop</text>
</g>
<!-- 13&#45;&gt;14 -->
<g id="edge16" class="edge">
<title>13&#45;&gt;14</title>
<path fill="none" stroke="black" d="M220.51,-1140.4C218.37,-1128.89 215.5,-1113.53 213.03,-1100.28"/>
<polygon fill="black" stroke="black" points="216.54,-1100 211.26,-1090.81 209.65,-1101.29 216.54,-1100"/>
<text text-anchor="middle" x="238" y="-1109.45" font-family="Times New Roman,serif" font-size="14.00">GOTO</text>
</g>
<!-- 15 -->
<g id="node16" class="node">
<title>15</title>
<polygon fill="#d6ffcc" stroke="#d6ffcc" points="249.38,-1001.25 162.12,-1001.25 162.12,-965.25 249.38,-965.25 249.38,-1001.25"/>
<text text-anchor="middle" x="205.75" y="-977.83" font-family="Times New Roman,serif" font-size="14.00">14: x = y + z</text>
</g>
<!-- 14&#45;&gt;15 -->
<g id="edge17" class="edge">
<title>14&#45;&gt;15</title>
<path fill="none" stroke="black" d="M204.77,-1052.61C203.94,-1047 203.16,-1040.76 202.75,-1035 202.24,-1027.89 202.36,-1020.22 202.75,-1013.05"/>
<polygon fill="black" stroke="black" points="206.23,-1013.38 203.49,-1003.15 199.25,-1012.86 206.23,-1013.38"/>
<text text-anchor="middle" x="258.25" y="-1021.7" font-family="Times New Roman,serif" font-size="14.00">FALL_THROUGH</text>
</g>
<!-- 15&#45;&gt;16 -->
<g id="edge18" class="edge">
<title>15&#45;&gt;16</title>
<path fill="none" stroke="black" d="M200.07,-965.08C197.7,-954.65 196.71,-941.46 202.75,-931.5 208.99,-921.21 219.35,-913.8 230.09,-908.53"/>
<polygon fill="black" stroke="black" points="231.18,-911.87 238.98,-904.7 228.41,-905.44 231.18,-911.87"/>
<text text-anchor="middle" x="258.25" y="-933.95" font-family="Times New Roman,serif" font-size="14.00">FALL_THROUGH</text>
</g>
<!-- 17 -->
<g id="node18" class="node">
<title>17</title>
<polygon fill="#d6ffcc" stroke="#d6ffcc" points="302.12,-825.75 237.38,-825.75 237.38,-789.75 302.12,-789.75 302.12,-825.75"/>
<text text-anchor="middle" x="269.75" y="-802.33" font-family="Times New Roman,serif" font-size="14.00">16: z = 1</text>
</g>
<!-- 16&#45;&gt;17 -->
<g id="edge19" class="edge">
<title>16&#45;&gt;17</title>
<path fill="none" stroke="black" d="M269.75,-877.15C269.75,-865.76 269.75,-850.59 269.75,-837.43"/>
<polygon fill="black" stroke="black" points="273.25,-837.59 269.75,-827.59 266.25,-837.59 273.25,-837.59"/>
<text text-anchor="middle" x="325.25" y="-846.2" font-family="Times New Roman,serif" font-size="14.00">FALL_THROUGH</text>
</g>
<!-- 18 -->
<g id="node19" class="node">
<title>18</title>
<polygon fill="#d6ffcc" stroke="#d6ffcc" points="298.75,-738 240.75,-738 240.75,-702 298.75,-702 298.75,-738"/>
<text text-anchor="middle" x="269.75" y="-714.58" font-family="Times New Roman,serif" font-size="14.00">17: nop</text>
</g>
<!-- 17&#45;&gt;18 -->
<g id="edge20" class="edge">
<title>17&#45;&gt;18</title>
<path fill="none" stroke="black" d="M269.75,-789.4C269.75,-778.01 269.75,-762.84 269.75,-749.68"/>
<polygon fill="black" stroke="black" points="273.25,-749.84 269.75,-739.84 266.25,-749.84 273.25,-749.84"/>
<text text-anchor="middle" x="325.25" y="-758.45" font-family="Times New Roman,serif" font-size="14.00">FALL_THROUGH</text>
</g>
<!-- 19 -->
<g id="node20" class="node">
<title>19</title>
<polygon fill="#d6ffcc" stroke="#d6ffcc" points="334,-650.25 205.5,-650.25 205.5,-614.25 334,-614.25 334,-650.25"/>
<text text-anchor="middle" x="269.75" y="-626.83" font-family="Times New Roman,serif" font-size="14.00">18: %intconst3 = 20</text>
</g>
<!-- 18&#45;&gt;19 -->
<g id="edge21" class="edge">
<title>18&#45;&gt;19</title>
<path fill="none" stroke="black" d="M269.75,-701.65C269.75,-690.26 269.75,-675.09 269.75,-661.93"/>
<polygon fill="black" stroke="black" points="273.25,-662.09 269.75,-652.09 266.25,-662.09 273.25,-662.09"/>
<text text-anchor="middle" x="325.25" y="-670.7" font-family="Times New Roman,serif" font-size="14.00">FALL_THROUGH</text>
</g>
<!-- 20 -->
<g id="node21" class="node">
<title>20</title>
<polygon fill="#d6ffcc" stroke="#d6ffcc" points="360.62,-562.5 178.88,-562.5 178.88,-526.5 360.62,-526.5 360.62,-562.5"/>
<text text-anchor="middle" x="269.75" y="-539.08" font-family="Times New Roman,serif" font-size="14.00">19: if (c &lt; %intconst3) goto 6</text>
</g>
<!-- 19&#45;&gt;20 -->
<g id="edge22" class="edge">
<title>19&#45;&gt;20</title>
<path fill="none" stroke="black" d="M269.75,-613.9C269.75,-602.51 269.75,-587.34 269.75,-574.18"/>
<polygon fill="black" stroke="black" points="273.25,-574.34 269.75,-564.34 266.25,-574.34 273.25,-574.34"/>
<text text-anchor="middle" x="325.25" y="-582.95" font-family="Times New Roman,serif" font-size="14.00">FALL_THROUGH</text>
</g>
<!-- 20&#45;&gt;7 -->
<g id="edge23" class="edge">
<title>20&#45;&gt;7</title>
<path fill="none" stroke="black" d="M354.61,-562.98C365.44,-567.54 375.83,-573.27 384.75,-580.5 404.76,-596.72 412.75,-605.49 412.75,-631.25 412.75,-1598.5 412.75,-1598.5 412.75,-1598.5 412.75,-1622.15 413.56,-1632.61 396.75,-1649.25 376.52,-1669.28 345.2,-1677.9 320.35,-1681.58"/>
<polygon fill="black" stroke="black" points="320.09,-1678.09 310.61,-1682.8 320.96,-1685.04 320.09,-1678.09"/>
<text text-anchor="middle" x="441.25" y="-1109.45" font-family="Times New Roman,serif" font-size="14.00">IF_TRUE</text>
</g>
<!-- 21 -->
<g id="node22" class="node">
<title>21</title>
<polygon fill="#d6ffcc" stroke="#d6ffcc" points="275.25,-474.75 196.25,-474.75 196.25,-438.75 275.25,-438.75 275.25,-474.75"/>
<text text-anchor="middle" x="235.75" y="-451.32" font-family="Times New Roman,serif" font-size="14.00">20: goto 21</text>
</g>
<!-- 20&#45;&gt;21 -->
<g id="edge24" class="edge">
<title>20&#45;&gt;21</title>
<path fill="none" stroke="black" d="M262.87,-526.15C258.26,-514.52 252.09,-498.97 246.8,-485.63"/>
<polygon fill="black" stroke="black" points="250.12,-484.49 243.18,-476.48 243.61,-487.07 250.12,-484.49"/>
<text text-anchor="middle" x="288.25" y="-495.2" font-family="Times New Roman,serif" font-size="14.00">IF_FALSE</text>
</g>
<!-- 22 -->
<g id="node23" class="node">
<title>22</title>
<polygon fill="#d6ffcc" stroke="#d6ffcc" points="241.75,-387 183.75,-387 183.75,-351 241.75,-351 241.75,-387"/>
<text text-anchor="middle" x="212.75" y="-363.57" font-family="Times New Roman,serif" font-size="14.00">21: nop</text>
</g>
<!-- 21&#45;&gt;22 -->
<g id="edge25" class="edge">
<title>21&#45;&gt;22</title>
<path fill="none" stroke="black" d="M231.1,-438.4C228.01,-426.89 223.89,-411.53 220.33,-398.28"/>
<polygon fill="black" stroke="black" points="223.76,-397.54 217.79,-388.79 217,-399.35 223.76,-397.54"/>
<text text-anchor="middle" x="247" y="-407.45" font-family="Times New Roman,serif" font-size="14.00">GOTO</text>
</g>
<!-- 22&#45;&gt;23 -->
<g id="edge26" class="edge">
<title>22&#45;&gt;23</title>
<path fill="none" stroke="black" d="M200,-350.65C191.12,-338.56 179.11,-322.22 169.06,-308.54"/>
<polygon fill="black" stroke="black" points="172.12,-306.78 163.38,-300.8 166.48,-310.93 172.12,-306.78"/>
<text text-anchor="middle" x="243.25" y="-319.7" font-family="Times New Roman,serif" font-size="14.00">FALL_THROUGH</text>
</g>
<!-- 24 -->
<g id="node25" class="node">
<title>24</title>
<polygon fill="#d6ffcc" stroke="#d6ffcc" points="182.12,-211.5 117.38,-211.5 117.38,-175.5 182.12,-175.5 182.12,-211.5"/>
<text text-anchor="middle" x="149.75" y="-188.07" font-family="Times New Roman,serif" font-size="14.00">23: z = x</text>
</g>
<!-- 23&#45;&gt;24 -->
<g id="edge27" class="edge">
<title>23&#45;&gt;24</title>
<path fill="none" stroke="black" d="M149.75,-262.9C149.75,-251.51 149.75,-236.34 149.75,-223.18"/>
<polygon fill="black" stroke="black" points="153.25,-223.34 149.75,-213.34 146.25,-223.34 153.25,-223.34"/>
<text text-anchor="middle" x="205.25" y="-231.95" font-family="Times New Roman,serif" font-size="14.00">FALL_THROUGH</text>
</g>
<!-- 25 -->
<g id="node26" class="node">
<title>25</title>
<polygon fill="#d6ffcc" stroke="#d6ffcc" points="184,-123.75 115.5,-123.75 115.5,-87.75 184,-87.75 184,-123.75"/>
<text text-anchor="middle" x="149.75" y="-100.33" font-family="Times New Roman,serif" font-size="14.00">24: return</text>
</g>
<!-- 24&#45;&gt;25 -->
<g id="edge28" class="edge">
<title>24&#45;&gt;25</title>
<path fill="none" stroke="black" d="M149.75,-175.15C149.75,-163.76 149.75,-148.59 149.75,-135.43"/>
<polygon fill="black" stroke="black" points="153.25,-135.59 149.75,-125.59 146.25,-135.59 153.25,-135.59"/>
<text text-anchor="middle" x="205.25" y="-144.2" font-family="Times New Roman,serif" font-size="14.00">FALL_THROUGH</text>
</g>
<!-- 26 -->
<g id="node27" class="node">
<title>26</title>
<polygon fill="#d6ffcc" stroke="#d6ffcc" points="299.5,-36 0,-36 0,0 299.5,0 299.5,-36"/>
<text text-anchor="middle" x="149.75" y="-12.57" font-family="Times New Roman,serif" font-size="14.00">Exit&lt;BranchLoop: void branchLoop(int,boolean)&gt;</text>
</g>
<!-- 25&#45;&gt;26 -->
<g id="edge29" class="edge">
<title>25&#45;&gt;26</title>
<path fill="none" stroke="black" d="M149.75,-87.4C149.75,-76.01 149.75,-60.84 149.75,-47.68"/>
<polygon fill="black" stroke="black" points="153.25,-47.84 149.75,-37.84 146.25,-47.84 153.25,-47.84"/>
<text text-anchor="middle" x="177.88" y="-56.45" font-family="Times New Roman,serif" font-size="14.00">RETURN</text>
</g>
</g>
</svg>
