<?xml version="1.0" encoding="UTF-8" standalone="no"?>
<!DOCTYPE svg PUBLIC "-//W3C//DTD SVG 1.1//EN"
 "http://www.w3.org/Graphics/SVG/1.1/DTD/svg11.dtd">
<!-- Generated by graphviz version 9.0.0 (20230911.1827)
 -->
<!-- Title: G Pages: 1 -->
<svg width="604pt" height="1205pt"
 viewBox="0.00 0.00 604.12 1205.00" xmlns="http://www.w3.org/2000/svg" xmlns:xlink="http://www.w3.org/1999/xlink">
<g id="graph0" class="graph" transform="scale(1 1) rotate(0) translate(4 1201)">
<title>G</title>
<polygon fill="white" stroke="none" points="-4,4 -4,-1201 600.12,-1201 600.12,4 -4,4"/>
<!-- 0 -->
<g id="node1" class="node">
<title>0</title>
<polygon fill="#d6ffcc" stroke="#d6ffcc" points="596.12,-1197 316.88,-1197 316.88,-1161 596.12,-1161 596.12,-1197"/>
<text text-anchor="middle" x="456.5" y="-1173.58" font-family="Times New Roman,serif" font-size="14.00">Entry&lt;BranchLoop: int loopBranch(int,int,int)&gt;</text>
</g>
<!-- 1 -->
<g id="node2" class="node">
<title>1</title>
<polygon fill="#d6ffcc" stroke="#d6ffcc" points="514,-1109.25 399,-1109.25 399,-1073.25 514,-1073.25 514,-1109.25"/>
<text text-anchor="middle" x="456.5" y="-1085.83" font-family="Times New Roman,serif" font-size="14.00">0: %intconst0 = 1</text>
</g>
<!-- 0&#45;&gt;1 -->
<g id="edge1" class="edge">
<title>0&#45;&gt;1</title>
<path fill="none" stroke="black" d="M456.5,-1160.65C456.5,-1149.26 456.5,-1134.09 456.5,-1120.93"/>
<polygon fill="black" stroke="black" points="460,-1121.09 456.5,-1111.09 453,-1121.09 460,-1121.09"/>
<text text-anchor="middle" x="479.75" y="-1129.7" font-family="Times New Roman,serif" font-size="14.00">ENTRY</text>
</g>
<!-- 2 -->
<g id="node3" class="node">
<title>2</title>
<polygon fill="#d6ffcc" stroke="#d6ffcc" points="523.38,-1021.5 389.62,-1021.5 389.62,-985.5 523.38,-985.5 523.38,-1021.5"/>
<text text-anchor="middle" x="456.5" y="-998.08" font-family="Times New Roman,serif" font-size="14.00">1: i = m &#45; %intconst0</text>
</g>
<!-- 1&#45;&gt;2 -->
<g id="edge2" class="edge">
<title>1&#45;&gt;2</title>
<path fill="none" stroke="black" d="M456.5,-1072.9C456.5,-1061.51 456.5,-1046.34 456.5,-1033.18"/>
<polygon fill="black" stroke="black" points="460,-1033.34 456.5,-1023.34 453,-1033.34 460,-1033.34"/>
<text text-anchor="middle" x="512" y="-1041.95" font-family="Times New Roman,serif" font-size="14.00">FALL_THROUGH</text>
</g>
<!-- 3 -->
<g id="node4" class="node">
<title>3</title>
<polygon fill="#d6ffcc" stroke="#d6ffcc" points="483.5,-933.75 429.5,-933.75 429.5,-897.75 483.5,-897.75 483.5,-933.75"/>
<text text-anchor="middle" x="456.5" y="-910.33" font-family="Times New Roman,serif" font-size="14.00">2: nop</text>
</g>
<!-- 2&#45;&gt;3 -->
<g id="edge3" class="edge">
<title>2&#45;&gt;3</title>
<path fill="none" stroke="black" d="M456.5,-985.15C456.5,-973.76 456.5,-958.59 456.5,-945.43"/>
<polygon fill="black" stroke="black" points="460,-945.59 456.5,-935.59 453,-945.59 460,-945.59"/>
<text text-anchor="middle" x="512" y="-954.2" font-family="Times New Roman,serif" font-size="14.00">FALL_THROUGH</text>
</g>
<!-- 4 -->
<g id="node5" class="node">
<title>4</title>
<polygon fill="#d6ffcc" stroke="#d6ffcc" points="419,-846 304,-846 304,-810 419,-810 419,-846"/>
<text text-anchor="middle" x="361.5" y="-822.58" font-family="Times New Roman,serif" font-size="14.00">3: if (i &lt; k) goto 5</text>
</g>
<!-- 3&#45;&gt;4 -->
<g id="edge4" class="edge">
<title>3&#45;&gt;4</title>
<path fill="none" stroke="black" d="M429.3,-902.98C417.72,-897.11 404.59,-889.23 394.5,-879.75 387.2,-872.9 380.77,-864.11 375.56,-855.79"/>
<polygon fill="black" stroke="black" points="378.68,-854.19 370.61,-847.33 372.64,-857.73 378.68,-854.19"/>
<text text-anchor="middle" x="450" y="-866.45" font-family="Times New Roman,serif" font-size="14.00">FALL_THROUGH</text>
</g>
<!-- 5 -->
<g id="node6" class="node">
<title>5</title>
<polygon fill="#d6ffcc" stroke="#d6ffcc" points="302.62,-758.25 230.38,-758.25 230.38,-722.25 302.62,-722.25 302.62,-758.25"/>
<text text-anchor="middle" x="266.5" y="-734.83" font-family="Times New Roman,serif" font-size="14.00">4: goto 15</text>
</g>
<!-- 4&#45;&gt;5 -->
<g id="edge6" class="edge">
<title>4&#45;&gt;5</title>
<path fill="none" stroke="black" d="M318.94,-809.57C310.2,-804.73 301.54,-798.88 294.5,-792 287.8,-785.45 282.26,-776.94 277.94,-768.77"/>
<polygon fill="black" stroke="black" points="281.1,-767.27 273.6,-759.78 274.79,-770.31 281.1,-767.27"/>
<text text-anchor="middle" x="326" y="-778.7" font-family="Times New Roman,serif" font-size="14.00">IF_FALSE</text>
</g>
<!-- 6 -->
<g id="node7" class="node">
<title>6</title>
<polygon fill="#d6ffcc" stroke="#d6ffcc" points="388.5,-758.25 334.5,-758.25 334.5,-722.25 388.5,-722.25 388.5,-758.25"/>
<text text-anchor="middle" x="361.5" y="-734.83" font-family="Times New Roman,serif" font-size="14.00">5: nop</text>
</g>
<!-- 4&#45;&gt;6 -->
<g id="edge5" class="edge">
<title>4&#45;&gt;6</title>
<path fill="none" stroke="black" d="M361.5,-809.65C361.5,-798.26 361.5,-783.09 361.5,-769.93"/>
<polygon fill="black" stroke="black" points="365,-770.09 361.5,-760.09 358,-770.09 365,-770.09"/>
<text text-anchor="middle" x="390" y="-778.7" font-family="Times New Roman,serif" font-size="14.00">IF_TRUE</text>
</g>
<!-- 16 -->
<g id="node17" class="node">
<title>16</title>
<polygon fill="#d6ffcc" stroke="#d6ffcc" points="226.5,-670.5 168.5,-670.5 168.5,-634.5 226.5,-634.5 226.5,-670.5"/>
<text text-anchor="middle" x="197.5" y="-647.08" font-family="Times New Roman,serif" font-size="14.00">15: nop</text>
</g>
<!-- 5&#45;&gt;16 -->
<g id="edge7" class="edge">
<title>5&#45;&gt;16</title>
<path fill="none" stroke="black" d="M252.54,-721.9C242.81,-709.81 229.66,-693.47 218.65,-679.79"/>
<polygon fill="black" stroke="black" points="221.39,-677.6 212.39,-672.01 215.93,-681.99 221.39,-677.6"/>
<text text-anchor="middle" x="258.75" y="-690.95" font-family="Times New Roman,serif" font-size="14.00">GOTO</text>
</g>
<!-- 7 -->
<g id="node8" class="node">
<title>7</title>
<polygon fill="#d6ffcc" stroke="#d6ffcc" points="423.12,-670.5 299.88,-670.5 299.88,-634.5 423.12,-634.5 423.12,-670.5"/>
<text text-anchor="middle" x="361.5" y="-647.08" font-family="Times New Roman,serif" font-size="14.00">6: if (i &gt;= n) goto 8</text>
</g>
<!-- 6&#45;&gt;7 -->
<g id="edge8" class="edge">
<title>6&#45;&gt;7</title>
<path fill="none" stroke="black" d="M361.5,-721.9C361.5,-710.51 361.5,-695.34 361.5,-682.18"/>
<polygon fill="black" stroke="black" points="365,-682.34 361.5,-672.34 358,-682.34 365,-682.34"/>
<text text-anchor="middle" x="417" y="-690.95" font-family="Times New Roman,serif" font-size="14.00">FALL_THROUGH</text>
</g>
<!-- 8 -->
<g id="node9" class="node">
<title>8</title>
<polygon fill="#d6ffcc" stroke="#d6ffcc" points="343.62,-528.75 271.38,-528.75 271.38,-492.75 343.62,-492.75 343.62,-528.75"/>
<text text-anchor="middle" x="307.5" y="-505.32" font-family="Times New Roman,serif" font-size="14.00">7: goto 10</text>
</g>
<!-- 7&#45;&gt;8 -->
<g id="edge10" class="edge">
<title>7&#45;&gt;8</title>
<path fill="none" stroke="black" d="M324.6,-634.06C318.15,-629.29 312.29,-623.47 308.5,-616.5 295.75,-593.07 297.28,-562.11 300.91,-539.94"/>
<polygon fill="black" stroke="black" points="304.29,-540.89 302.72,-530.42 297.42,-539.59 304.29,-540.89"/>
<text text-anchor="middle" x="340" y="-603.2" font-family="Times New Roman,serif" font-size="14.00">IF_FALSE</text>
</g>
<!-- 9 -->
<g id="node10" class="node">
<title>9</title>
<polygon fill="#d6ffcc" stroke="#d6ffcc" points="420.5,-582.75 366.5,-582.75 366.5,-546.75 420.5,-546.75 420.5,-582.75"/>
<text text-anchor="middle" x="393.5" y="-559.33" font-family="Times New Roman,serif" font-size="14.00">8: nop</text>
</g>
<!-- 7&#45;&gt;9 -->
<g id="edge9" class="edge">
<title>7&#45;&gt;9</title>
<path fill="none" stroke="black" d="M367.98,-634.15C372.31,-622.52 378.12,-606.97 383.1,-593.63"/>
<polygon fill="black" stroke="black" points="386.29,-595.09 386.5,-584.5 379.73,-592.64 386.29,-595.09"/>
<text text-anchor="middle" x="409" y="-603.2" font-family="Times New Roman,serif" font-size="14.00">IF_TRUE</text>
</g>
<!-- 11 -->
<g id="node12" class="node">
<title>11</title>
<polygon fill="#d6ffcc" stroke="#d6ffcc" points="422.5,-387 364.5,-387 364.5,-351 422.5,-351 422.5,-387"/>
<text text-anchor="middle" x="393.5" y="-363.57" font-family="Times New Roman,serif" font-size="14.00">10: nop</text>
</g>
<!-- 8&#45;&gt;11 -->
<g id="edge11" class="edge">
<title>8&#45;&gt;11</title>
<path fill="none" stroke="black" d="M306.56,-492.39C306.48,-477.36 308.17,-455.47 317,-438.75 326.32,-421.1 342.09,-405.75 356.9,-394.06"/>
<polygon fill="black" stroke="black" points="358.83,-396.99 364.72,-388.18 354.62,-391.4 358.83,-396.99"/>
<text text-anchor="middle" x="337.75" y="-451.32" font-family="Times New Roman,serif" font-size="14.00">GOTO</text>
</g>
<!-- 10 -->
<g id="node11" class="node">
<title>10</title>
<polygon fill="#d6ffcc" stroke="#d6ffcc" points="424.5,-474.75 366.5,-474.75 366.5,-438.75 424.5,-438.75 424.5,-474.75"/>
<text text-anchor="middle" x="395.5" y="-451.32" font-family="Times New Roman,serif" font-size="14.00">9: a = n</text>
</g>
<!-- 9&#45;&gt;10 -->
<g id="edge12" class="edge">
<title>9&#45;&gt;10</title>
<path fill="none" stroke="black" d="M393.67,-546.53C393.83,-532.15 394.11,-511.11 394.5,-492.75 394.54,-490.7 394.59,-488.58 394.65,-486.44"/>
<polygon fill="black" stroke="black" points="398.14,-486.8 394.91,-476.71 391.14,-486.61 398.14,-486.8"/>
<text text-anchor="middle" x="450" y="-505.32" font-family="Times New Roman,serif" font-size="14.00">FALL_THROUGH</text>
</g>
<!-- 10&#45;&gt;11 -->
<g id="edge13" class="edge">
<title>10&#45;&gt;11</title>
<path fill="none" stroke="black" d="M394.97,-438.3C394.81,-432.7 394.64,-426.46 394.5,-420.75 394.33,-413.64 394.17,-405.97 394.02,-398.79"/>
<polygon fill="black" stroke="black" points="397.52,-398.83 393.83,-388.9 390.53,-398.96 397.52,-398.83"/>
<text text-anchor="middle" x="450" y="-407.45" font-family="Times New Roman,serif" font-size="14.00">FALL_THROUGH</text>
</g>
<!-- 12 -->
<g id="node13" class="node">
<title>12</title>
<polygon fill="#d6ffcc" stroke="#d6ffcc" points="434.88,-299.25 352.12,-299.25 352.12,-263.25 434.88,-263.25 434.88,-299.25"/>
<text text-anchor="middle" x="393.5" y="-275.82" font-family="Times New Roman,serif" font-size="14.00">11: a = a + i</text>
</g>
<!-- 11&#45;&gt;12 -->
<g id="edge14" class="edge">
<title>11&#45;&gt;12</title>
<path fill="none" stroke="black" d="M393.5,-350.65C393.5,-339.26 393.5,-324.09 393.5,-310.93"/>
<polygon fill="black" stroke="black" points="397,-311.09 393.5,-301.09 390,-311.09 397,-311.09"/>
<text text-anchor="middle" x="449" y="-319.7" font-family="Times New Roman,serif" font-size="14.00">FALL_THROUGH</text>
</g>
<!-- 13 -->
<g id="node14" class="node">
<title>13</title>
<polygon fill="#d6ffcc" stroke="#d6ffcc" points="422.5,-211.5 364.5,-211.5 364.5,-175.5 422.5,-175.5 422.5,-211.5"/>
<text text-anchor="middle" x="393.5" y="-188.07" font-family="Times New Roman,serif" font-size="14.00">12: nop</text>
</g>
<!-- 12&#45;&gt;13 -->
<g id="edge15" class="edge">
<title>12&#45;&gt;13</title>
<path fill="none" stroke="black" d="M393.5,-262.9C393.5,-251.51 393.5,-236.34 393.5,-223.18"/>
<polygon fill="black" stroke="black" points="397,-223.34 393.5,-213.34 390,-223.34 397,-223.34"/>
<text text-anchor="middle" x="449" y="-231.95" font-family="Times New Roman,serif" font-size="14.00">FALL_THROUGH</text>
</g>
<!-- 14 -->
<g id="node15" class="node">
<title>14</title>
<polygon fill="#d6ffcc" stroke="#d6ffcc" points="461.88,-123.75 325.12,-123.75 325.12,-87.75 461.88,-87.75 461.88,-123.75"/>
<text text-anchor="middle" x="393.5" y="-100.33" font-family="Times New Roman,serif" font-size="14.00">13: i = i + %intconst0</text>
</g>
<!-- 13&#45;&gt;14 -->
<g id="edge16" class="edge">
<title>13&#45;&gt;14</title>
<path fill="none" stroke="black" d="M393.5,-175.15C393.5,-163.76 393.5,-148.59 393.5,-135.43"/>
<polygon fill="black" stroke="black" points="397,-135.59 393.5,-125.59 390,-135.59 397,-135.59"/>
<text text-anchor="middle" x="449" y="-144.2" font-family="Times New Roman,serif" font-size="14.00">FALL_THROUGH</text>
</g>
<!-- 15 -->
<g id="node16" class="node">
<title>15</title>
<polygon fill="#d6ffcc" stroke="#d6ffcc" points="492.62,-36 420.38,-36 420.38,0 492.62,0 492.62,-36"/>
<text text-anchor="middle" x="456.5" y="-12.57" font-family="Times New Roman,serif" font-size="14.00">14: goto 2</text>
</g>
<!-- 14&#45;&gt;15 -->
<g id="edge17" class="edge">
<title>14&#45;&gt;15</title>
<path fill="none" stroke="black" d="M389.78,-87.59C388.46,-77.17 388.54,-63.99 394.5,-54 398.42,-47.44 404.06,-42.01 410.36,-37.54"/>
<polygon fill="black" stroke="black" points="411.96,-40.67 418.65,-32.46 408.3,-34.7 411.96,-40.67"/>
<text text-anchor="middle" x="450" y="-56.45" font-family="Times New Roman,serif" font-size="14.00">FALL_THROUGH</text>
</g>
<!-- 15&#45;&gt;3 -->
<g id="edge18" class="edge">
<title>15&#45;&gt;3</title>
<path fill="none" stroke="black" d="M487.6,-36.35C494.29,-41.31 500.77,-47.23 505.5,-54 518.9,-73.18 519.5,-81.35 519.5,-104.75 519.5,-829 519.5,-829 519.5,-829 519.5,-852.4 518.9,-860.57 505.5,-879.75 501.98,-884.78 497.5,-889.35 492.68,-893.4"/>
<polygon fill="black" stroke="black" points="490.85,-890.39 484.98,-899.21 495.07,-895.98 490.85,-890.39"/>
<text text-anchor="middle" x="539.75" y="-451.32" font-family="Times New Roman,serif" font-size="14.00">GOTO</text>
</g>
<!-- 17 -->
<g id="node18" class="node">
<title>17</title>
<polygon fill="#d6ffcc" stroke="#d6ffcc" points="184.62,-582.75 106.38,-582.75 106.38,-546.75 184.62,-546.75 184.62,-582.75"/>
<text text-anchor="middle" x="145.5" y="-559.33" font-family="Times New Roman,serif" font-size="14.00">16: return a</text>
</g>
<!-- 16&#45;&gt;17 -->
<g id="edge19" class="edge">
<title>16&#45;&gt;17</title>
<path fill="none" stroke="black" d="M185.82,-634.19C182.12,-628.59 178.07,-622.33 174.5,-616.5 169.83,-608.89 164.94,-600.51 160.54,-592.8"/>
<polygon fill="black" stroke="black" points="163.62,-591.12 155.65,-584.14 157.52,-594.57 163.62,-591.12"/>
<text text-anchor="middle" x="230" y="-603.2" font-family="Times New Roman,serif" font-size="14.00">FALL_THROUGH</text>
</g>
<!-- 18 -->
<g id="node19" class="node">
<title>18</title>
<polygon fill="#d6ffcc" stroke="#d6ffcc" points="271,-474.75 0,-474.75 0,-438.75 271,-438.75 271,-474.75"/>
<text text-anchor="middle" x="135.5" y="-451.32" font-family="Times New Roman,serif" font-size="14.00">Exit&lt;BranchLoop: int loopBranch(int,int,int)&gt;</text>
</g>
<!-- 17&#45;&gt;18 -->
<g id="edge20" class="edge">
<title>17&#45;&gt;18</title>
<path fill="none" stroke="black" d="M143.89,-546.72C142.36,-530.51 140.03,-505.81 138.22,-486.54"/>
<polygon fill="black" stroke="black" points="141.7,-486.22 137.28,-476.6 134.73,-486.88 141.7,-486.22"/>
<text text-anchor="middle" x="170.62" y="-505.32" font-family="Times New Roman,serif" font-size="14.00">RETURN</text>
</g>
</g>
</svg>
